<svg xmlns="http://www.w3.org/2000/svg" viewBox="0 0 60 60" width="60" height="60">
  <!-- face -->
  <circle cx="30" cy="30" r="28" fill="#4ade80"/>
  <!-- star left eye -->
  <polygon points="20,20 21.3,24.1 25.6,24.1 22.2,26.6 23.4,30.8 20,28.3 16.6,30.8 17.8,26.6 14.4,24.1 18.7,24.1" fill="#fde68a"/>
  <!-- star right eye -->
  <polygon points="40,20 41.3,24.1 45.6,24.1 42.2,26.6 43.4,30.8 40,28.3 36.6,30.8 37.8,26.6 34.4,24.1 38.7,24.1" fill="#fde68a"/>
  <!-- big wide smile with fill -->
  <path d="M14 39 Q30 54 46 39" stroke="#1e293b" stroke-width="2.5" fill="#1e293b" stroke-linecap="round"/>
  <!-- teeth -->
  <path d="M14 39 Q30 54 46 39 Q30 44 14 39 Z" fill="white"/>
  <!-- sparkle lines top-right -->
  <line x1="49" y1="7" x2="53" y2="3" stroke="#fde68a" stroke-width="2" stroke-linecap="round"/>
  <line x1="53" y1="11" x2="58" y2="11" stroke="#fde68a" stroke-width="2" stroke-linecap="round"/>
  <line x1="51" y1="16" x2="55" y2="20" stroke="#fde68a" stroke-width="2" stroke-linecap="round"/>
</svg>
